<svg xmlns="http://www.w3.org/2000/svg" width="22.361" height="22.384" viewBox="0 0 22.361 22.384"><defs><style>.a{fill:#b43120;}</style></defs><path class="a" d="M23.957,11.862l-1.83-.516c-.375-.892-.54-1.29-.915-2.182l.939-1.642a.925.925,0,0,0-.141-1.1l-1.29-1.29a.921.921,0,0,0-1.1-.141l-1.642.939c-.915-.375-1.29-.54-2.182-.915l-.516-1.83a.929.929,0,0,0-.892-.68h-1.83a.929.929,0,0,0-.892.68l-.516,1.83c-.892.375-1.29.54-2.182.915L7.321,4.987a.925.925,0,0,0-1.1.141l-1.29,1.29a.921.921,0,0,0-.141,1.1l.939,1.666c-.375.892-.54,1.29-.915,2.182l-1.83.516a.929.929,0,0,0-.68.892v1.83a.929.929,0,0,0,.68.892l1.83.516c.375.892.54,1.29.915,2.182l-.939,1.666a.925.925,0,0,0,.141,1.1l1.29,1.29a.921.921,0,0,0,1.1.141l1.642-.939c.892.375,1.29.54,2.182.915l.516,1.83a.929.929,0,0,0,.892.68h1.83a.929.929,0,0,0,.892-.68l.516-1.83c.892-.375,1.29-.54,2.182-.915l1.666.939a.925.925,0,0,0,1.1-.141l1.29-1.29a.921.921,0,0,0,.141-1.1L21.235,18.2c.375-.892.54-1.29.915-2.182l1.83-.516a.929.929,0,0,0,.68-.892v-1.83A.963.963,0,0,0,23.957,11.862ZM13.492,17.446a3.8,3.8,0,1,1,3.8-3.8A3.8,3.8,0,0,1,13.492,17.446Z" transform="translate(-2.3 -2.5)"/></svg>