<svg xmlns="http://www.w3.org/2000/svg" width="25.018" height="17.182" viewBox="0 0 25.018 17.182"><defs><style>.a{fill:#b43120;}</style></defs><g transform="translate(-5.269 -19.279)"><path class="a" d="M15.909,34.2c1.194,0,2.476-1.586,2.476-3.216a2.484,2.484,0,1,0-4.952,0C13.433,32.616,14.676,34.2,15.909,34.2Z" transform="translate(-5.881 -6.498)"/><path class="a" d="M71.333,34.2c1.194,0,2.476-1.586,2.476-3.216a2.484,2.484,0,1,0-4.952,0C68.857,32.616,70.1,34.2,71.333,34.2Z" transform="translate(-45.806 -6.498)"/><path class="a" d="M40.369,28.33c1.831,0,3.8-2.433,3.8-4.932a3.809,3.809,0,1,0-7.593,0C36.572,25.9,38.478,28.33,40.369,28.33Z" transform="translate(-22.549)"/><path class="a" d="M38.14,58.871a7.144,7.144,0,0,0-1.416-2.016,3.842,3.842,0,0,0-3.183-1c-.827.181-.867.658-2.192.658s-1.365-.477-2.193-.658a3.842,3.842,0,0,0-3.183,1,7.136,7.136,0,0,0-1.416,2.016c-.23.456-.71,1.786-.412,2.359.376.724,1.293,1.024,3.812,1.332a31.277,31.277,0,0,0,6.786,0c2.519-.308,3.435-.608,3.812-1.332C38.85,60.657,38.37,59.327,38.14,58.871Z" transform="translate(-13.528 -26.285)"/><g transform="translate(22.302 28.455)"><path class="a" d="M73.831,54.117a4.65,4.65,0,0,0-.923-1.315,2.5,2.5,0,0,0-2.076-.653c-.54.118-.565.429-1.43.429s-.89-.311-1.43-.429a2.372,2.372,0,0,0-1.8.428,4.8,4.8,0,0,1,1.56.99,8.079,8.079,0,0,1,1.576,2.241,6.333,6.333,0,0,1,.333.834c.407-.006,1.251-.03,1.968-.118,1.643-.2,2.24-.4,2.486-.869C74.295,55.282,73.982,54.414,73.831,54.117Z" transform="translate(-66.177 -52.093)"/></g><g transform="translate(5.269 28.456)"><path class="a" d="M10.2,55.808a8.068,8.068,0,0,1,1.576-2.241,4.748,4.748,0,0,1,1.508-.968,2.394,2.394,0,0,0-1.828-.449c-.54.118-.565.429-1.429.429s-.89-.311-1.43-.429a2.505,2.505,0,0,0-2.076.653A4.664,4.664,0,0,0,5.6,54.118c-.15.3-.463,1.165-.269,1.538.246.473.843.668,2.485.869.768.094,1.683.115,2.048.119A6.793,6.793,0,0,1,10.2,55.808Z" transform="translate(-5.269 -52.094)"/></g></g></svg>