<svg xmlns="http://www.w3.org/2000/svg" width="23.027" height="15.256" viewBox="0 0 23.027 15.256"><defs><style>.a{fill:#b43120;}</style></defs><g transform="translate(-163.81 -123.944)"><g transform="translate(148 98.444)"><path class="a" d="M38.006,29.973,35.035,32.01a3.391,3.391,0,0,1-5.007-1.369l-2.27-4.84a.514.514,0,0,0-.935,0l-2.2,4.807a3.405,3.405,0,0,1-5.108,1.335l-2.871-2.1a.525.525,0,0,0-.8.6l3,10.182a.208.208,0,0,0,.2.134H35.636a.225.225,0,0,0,.2-.134l2.971-9.981A.549.549,0,0,0,38.006,29.973Z" transform="translate(0)"/></g></g></svg>