<?xml version="1.0" encoding="utf-8"?>
<!-- Generator: Adobe Illustrator 19.0.0, SVG Export Plug-In . SVG Version: 6.00 Build 0)  -->
<svg version="1.1" id="Layer_1" xmlns="http://www.w3.org/2000/svg" xmlns:xlink="http://www.w3.org/1999/xlink" x="0px" y="0px"
	 viewBox="0 0 170.2 37.4" style="enable-background:new 0 0 170.2 37.4;" xml:space="preserve">
<metadata><?xpacket begin="﻿" id="W5M0MpCehiHzreSzNTczkc9d"?>
<x:xmpmeta xmlns:x="adobe:ns:meta/" x:xmptk="Adobe XMP Core 5.6-c067 79.157747, 2015/03/30-23:40:42        ">
   <rdf:RDF xmlns:rdf="http://www.w3.org/1999/02/22-rdf-syntax-ns#">
      <rdf:Description rdf:about=""/>
   </rdf:RDF>
</x:xmpmeta>





















<?xpacket end="w"?></metadata>
<style type="text/css">
	.st0{fill-rule:evenodd;clip-rule:evenodd;fill:#ffffff;}
</style>
<g>
	<polyline class="st0" points="38.7,4.6 50.7,4.6 50.7,9 36.9,9 32.5,4.6 18.6,4.6 14.2,9 0.3,9 0.3,4.6 12.4,4.6 16.8,0.2
		34.3,0.2 38.7,4.6 	"/>
	<polyline class="st0" points="0.3,25.3 4.7,25.3 4.7,14.8 4.8,14.8 7.4,25.3 11.7,25.3 14.3,14.8 14.3,14.8 14.4,25.3 19,25.3
		19,11.9 11.4,11.9 9.7,19.2 9.7,19.2 7.9,11.9 0.3,11.9 0.3,25.3 	"/>
	<path class="st0" d="M25.9,14.9h1.4c1,0,2,0.2,2,1.4c0,1.4-1,1.5-2.1,1.5h-1.3V14.9 M20.9,25.3h5.1v-4.5h1.2c0.6,0,1.2,0.1,1.5,0.7
		c0.4,0.8,0.5,2.9,0.7,3.9h5.4c-0.5-1.3-0.5-3.4-1.3-4.8c-0.5-0.7-1.2-1.2-2.3-1.4v0c1.9-0.5,3.2-1.5,3.2-3.5c0-2.6-2-3.6-5.2-3.6
		h-8.3V25.3z"/>
	<polyline class="st0" points="36.1,25.3 40.5,25.3 40.5,15.6 40.6,15.6 43.2,25.3 50.7,25.3 50.7,11.9 46.3,11.9 46.3,21.4
		46.3,21.4 43.8,11.9 36.1,11.9 36.1,25.3 	"/>
	<polyline class="st0" points="12.4,32.6 0.3,32.6 0.3,28.2 14.2,28.2 18.6,32.6 32.5,32.6 36.9,28.2 50.8,28.2 50.8,32.6
		38.7,32.6 34.3,37 16.8,37 12.4,32.6 	"/>
</g>
</svg>
