<?xml version="1.0" encoding="utf-8"?>
<!-- Generator: Adobe Illustrator 19.0.0, SVG Export Plug-In . SVG Version: 6.00 Build 0)  -->
<svg version="1.1" id="Layer_1" xmlns="http://www.w3.org/2000/svg" xmlns:xlink="http://www.w3.org/1999/xlink" x="0px" y="0px"
	 viewBox="0 0 170.2 37.4" style="enable-background:new 0 0 170.2 37.4;" xml:space="preserve">
<metadata><?xpacket begin="﻿" id="W5M0MpCehiHzreSzNTczkc9d"?>
<x:xmpmeta xmlns:x="adobe:ns:meta/" x:xmptk="Adobe XMP Core 5.6-c067 79.157747, 2015/03/30-23:40:42        ">
   <rdf:RDF xmlns:rdf="http://www.w3.org/1999/02/22-rdf-syntax-ns#">
      <rdf:Description rdf:about=""/>
   </rdf:RDF>
</x:xmpmeta>
                                                                                                    
                                                                                                    
                                                                                                    
                                                                                                    
                                                                                                    
                                                                                                    
                                                                                                    
                                                                                                    
                                                                                                    
                                                                                                    
                                                                                                    
                                                                                                    
                                                                                                    
                                                                                                    
                                                                                                    
                                                                                                    
                                                                                                    
                                                                                                    
                                                                                                    
                                                                                                    
                           
<?xpacket end="w"?></metadata>
<style type="text/css">
	.st0{fill-rule:evenodd;clip-rule:evenodd;fill:#ffffff;}
</style>
<g>
	<polyline class="st0" points="38.7,4.6 50.7,4.6 50.7,9 36.9,9 32.5,4.6 18.6,4.6 14.2,9 0.3,9 0.3,4.6 12.4,4.6 16.8,0.2 
		34.3,0.2 38.7,4.6 	"/>
	<polyline class="st0" points="0.3,25.3 4.7,25.3 4.7,14.8 4.8,14.8 7.4,25.3 11.7,25.3 14.3,14.8 14.3,14.8 14.4,25.3 19,25.3 
		19,11.9 11.4,11.9 9.7,19.2 9.7,19.2 7.9,11.9 0.3,11.9 0.3,25.3 	"/>
	<path class="st0" d="M25.9,14.9h1.4c1,0,2,0.2,2,1.4c0,1.4-1,1.5-2.1,1.5h-1.3V14.9 M20.9,25.3h5.1v-4.5h1.2c0.6,0,1.2,0.1,1.5,0.7
		c0.4,0.8,0.5,2.9,0.7,3.9h5.4c-0.5-1.3-0.5-3.4-1.3-4.8c-0.5-0.7-1.2-1.2-2.3-1.4v0c1.9-0.5,3.2-1.5,3.2-3.5c0-2.6-2-3.6-5.2-3.6
		h-8.3V25.3z"/>
	<polyline class="st0" points="36.1,25.3 40.5,25.3 40.5,15.6 40.6,15.6 43.2,25.3 50.7,25.3 50.7,11.9 46.3,11.9 46.3,21.4 
		46.3,21.4 43.8,11.9 36.1,11.9 36.1,25.3 	"/>
	<polyline class="st0" points="12.4,32.6 0.3,32.6 0.3,28.2 14.2,28.2 18.6,32.6 32.5,32.6 36.9,28.2 50.8,28.2 50.8,32.6 
		38.7,32.6 34.3,37 16.8,37 12.4,32.6 	"/>
	<path class="st0" d="M63.6,23.7h1.2c0.9,0,1.7,0.1,1.7,1.2c0,1.2-0.9,1.3-1.8,1.3h-1.2V23.7 M59.4,32.6h4.4v-3.9h1
		c0.5,0,1,0.1,1.3,0.6c0.4,0.7,0.4,2.5,0.6,3.3h4.6c-0.5-1.1-0.4-2.9-1.1-4.1c-0.4-0.6-1-1.1-1.9-1.2v0c1.6-0.4,2.8-1.3,2.8-3
		c0-2.2-1.7-3.1-4.4-3.1h-7.1V32.6z"/>
	<path class="st0" d="M76.7,20.2h-4.2v2.9h4.2V20.2z M72.5,32.6h4.2V24h-4.2V32.6z"/>
	<path class="st0" d="M82.2,28.1c0-1,0.1-1.9,0.9-1.9c0.8,0,0.9,0.8,0.9,1.9c0,1.3-0.1,2.2-0.9,2.2C82.3,30.3,82.2,29.4,82.2,28.1
		 M77.8,28.1c0,3,1.8,4.6,5.3,4.6c3.5,0,5.3-1.7,5.3-4.6c0-2.9-1.9-4.3-5.3-4.3C79.6,23.8,77.8,25.3,77.8,28.1z"/>
	<path class="st0" d="M98.1,28.3c0,0.8-0.1,1.8-1,1.8c-0.9,0-1.1-1-1.1-1.9c0-0.9,0.1-1.8,1-1.8C98,26.4,98.1,27.3,98.1,28.3
		 M102.2,32.6V20.2H98v4.9h0c-0.6-0.9-1.5-1.3-2.6-1.3c-2.6,0-3.7,2-3.7,4.4c0,2.5,1,4.6,3.8,4.6c1.4,0,2.2-0.5,2.8-1.8h0v1.6H102.2
		z"/>
	<path class="st0" d="M107.7,28.1c0-1,0.1-1.9,0.9-1.9c0.8,0,0.9,0.8,0.9,1.9c0,1.3-0.1,2.2-0.9,2.2
		C107.8,30.3,107.7,29.4,107.7,28.1 M103.3,28.1c0,3,1.8,4.6,5.3,4.6c3.5,0,5.3-1.7,5.3-4.6c0-2.9-1.9-4.3-5.3-4.3
		C105.2,23.8,103.3,25.3,103.3,28.1z"/>
	<polyline class="st0" points="118,32.6 121.8,32.6 121.8,24.2 121.8,24.2 124.1,32.6 130.6,32.6 130.6,21.1 126.8,21.1 126.8,29.2 
		126.7,29.2 124.6,21.1 118,21.1 118,32.6 	"/>
	<path class="st0" d="M136.2,28.1c0-1,0.1-1.9,0.9-1.9c0.8,0,0.9,0.8,0.9,1.9c0,1.3-0.1,2.2-0.9,2.2
		C136.3,30.3,136.2,29.4,136.2,28.1 M131.8,28.1c0,3,1.8,4.6,5.3,4.6c3.5,0,5.3-1.7,5.3-4.6c0-2.9-1.9-4.3-5.3-4.3
		C133.6,23.8,131.8,25.3,131.8,28.1z"/>
	<path class="st0" d="M143.6,24v8.6h4.2v-3.1c0-1.3,1-2.3,2.1-2.3c0.4,0,0.7,0.1,0.9,0.1v-3.4c-0.2,0-0.4-0.1-0.7-0.1
		c-1.3,0-2.1,0.9-2.6,2.1h0V24H143.6"/>
	<path class="st0" d="M151.6,24v2.5h1.5v3c0,2.3,1,3.3,3.2,3.3c1,0,1.9-0.2,2.9-0.4v-2.5c-0.3,0.1-0.6,0.1-1,0.1
		c-0.5,0-0.9-0.4-0.9-1.1v-2.4h1.9V24h-1.9v-3.2l-4.2,1.3v2H151.6"/>
	<path class="st0" d="M169.7,29.3v-0.5c0-2.9-1.2-5-4.5-5c-3.5,0-5.3,1.4-5.3,4.3c0,3,1.8,4.6,5.3,4.6c1.4,0,2.8-0.1,3.9-0.5v-2.2
		c-0.7,0.3-1.7,0.5-2.8,0.5c-1.2,0-2.2-0.2-2.3-1.3H169.7 M164,27.5c-0.1-0.7,0.2-1.7,1.1-1.7c0.9,0,1,1,1,1.7H164z"/>
	<polyline class="st0" points="59.4,16.1 63.1,16.1 63.2,7.1 63.2,7.1 65.4,16.1 69.1,16.1 71.4,7.1 71.4,7.1 71.5,16.1 75.4,16.1 
		75.4,4.6 68.9,4.6 67.4,10.9 67.4,10.9 65.9,4.6 59.4,4.6 59.4,16.1 	"/>
	<path class="st0" d="M81.4,3.7h-4.2v2.9h4.2V3.7z M77.2,16.1h4.2V7.5h-4.2V16.1z"/>
	<path class="st0" d="M83.1,16.1h4.2v-4.9c0-0.5,0-1.2,0.7-1.2c0.7,0,0.7,0.7,0.7,1.2v4.9h4.2v-6c0-1.7-0.8-2.8-3-2.8
		c-1.2,0-2.3,0.5-2.8,1.7h0V7.5h-3.9V16.1"/>
	<path class="st0" d="M103.9,12.8v-0.5c0-2.9-1.2-5-4.5-5c-3.5,0-5.3,1.4-5.3,4.3c0,3,1.8,4.6,5.3,4.6c1.4,0,2.8-0.1,3.9-0.5v-2.2
		c-0.7,0.3-1.7,0.5-2.8,0.5c-1.2,0-2.2-0.2-2.3-1.3H103.9 M98.2,11c0-0.7,0.2-1.7,1.1-1.7c0.9,0,1,1,1,1.7H98.2z"/>
	<path class="st0" d="M105,7.5v8.6h4.2V13c0-1.3,1-2.3,2.1-2.3c0.4,0,0.7,0.1,0.9,0.1V7.4c-0.2,0-0.4-0.1-0.7-0.1
		c-1.3,0-2.1,0.9-2.6,2.1h0V7.5H105"/>
	<path class="st0" d="M118.7,12.6c0,0.7-0.4,1.5-1.3,1.5c-0.6,0-1-0.2-1-0.8c0-0.9,1-1,1.8-1h0.4V12.6 M113.7,10.2
		c0.8-0.4,1.9-0.7,2.9-0.7c1,0,2.2,0.1,2.2,1.2c-0.4,0-1-0.1-1.6-0.1c-2.1,0-4.4,0.5-4.4,3.2c0,1.8,1.5,2.5,3.1,2.5
		c1.2,0,2.2-0.5,2.8-1.4h0v1.2h3.9v-5.2c0-3.1-2.9-3.6-5.3-3.6c-1.6,0-2.4,0.1-3.6,0.5V10.2z"/>
	<path class="st0" d="M138.9,12.6c0,0.7-0.4,1.5-1.3,1.5c-0.6,0-1-0.2-1-0.8c0-0.9,1-1,1.8-1h0.4V12.6 M133.8,10.2
		c0.8-0.4,1.9-0.7,2.9-0.7c1,0,2.2,0.1,2.2,1.2c-0.4,0-1-0.1-1.6-0.1c-2.1,0-4.4,0.5-4.4,3.2c0,1.8,1.5,2.5,3.1,2.5
		c1.2,0,2.2-0.5,2.8-1.4h0v1.2h3.9v-5.2c0-3.1-2.9-3.6-5.3-3.6c-1.6,0-2.4,0.1-3.6,0.5V10.2z M135.9,6.3c0-0.3,0.4-0.6,0.7-0.6
		c0.3,0,0.7,0.1,1.1,0.3c0.4,0.2,1,0.3,1.6,0.3c1.3,0,2.1-1.2,2.2-2.6H140c-0.1,0.4-0.3,0.6-0.7,0.6c-0.4,0-0.9-0.2-1.5-0.4
		c-0.4-0.1-0.9-0.2-1.4-0.2c-1.3,0-1.9,1.2-2,2.6H135.9z"/>
	<path class="st0" d="M148.2,11.7c0-1,0.1-1.9,0.9-1.9c0.8,0,0.9,0.8,0.9,1.9c0,1.3-0.1,2.2-0.9,2.2
		C148.3,13.8,148.2,12.9,148.2,11.7 M143.8,11.7c0,3,1.8,4.6,5.3,4.6c3.5,0,5.3-1.7,5.3-4.6c0-2.9-1.9-4.3-5.3-4.3
		C145.6,7.3,143.8,8.8,143.8,11.7z"/>
	<path class="st0" d="M132,13.3v2.6c-0.8,0.2-1.5,0.4-2.5,0.4l-0.1,0L129,17c0.2,0,0.3,0,0.5,0c0.7,0,1.3,0.3,1.3,1.1
		c0,0.9-1.1,1.2-2,1.2c-0.8,0-1.4-0.2-1.9-0.4l0.4-0.8c0.4,0.2,0.8,0.3,1.2,0.3c0.3,0,0.7-0.1,0.7-0.3c0-0.2-0.3-0.4-0.6-0.4
		c-0.2,0-0.3,0-0.5,0.1l-0.4-0.5l0.6-1.1l-0.2,0c-2.9-0.2-4.4-1.9-4.4-4.6c0-2.9,1.8-4.3,5.3-4.3c1.2,0,2.2,0.1,3,0.4v2.5
		c-0.5-0.2-1.1-0.4-1.9-0.4c-1.2,0-2.1,0.6-2.1,1.9c0,1.3,0.8,2.1,2.1,2.1C130.8,13.8,131.4,13.7,132,13.3"/>
</g>
</svg>
